<?xml version="1.0" encoding="utf-8"?>
<!-- Generator: Adobe Illustrator 25.2.1, SVG Export Plug-In . SVG Version: 6.00 Build 0)  -->
<svg version="1.1" id="Calque_1" xmlns="http://www.w3.org/2000/svg" xmlns:xlink="http://www.w3.org/1999/xlink" x="0px" y="0px"
	 viewBox="0 0 838.4 316.7" style="enable-background:new 0 0 838.4 316.7;" xml:space="preserve">
<style type="text/css">
	.st0{fill:#FEC800;}
	.st1{fill:#00A5A5;}
	.st2{fill:#010202;}
	.st3{fill:#E94A34;}
	.st4{fill:#FFFFFF;}
</style>
<path class="st0" d="M173.3,212.6c58.9,0,106.6-47.6,106.6-106.3S232.2,0,173.3,0S66.8,47.6,66.8,106.3S114.5,212.6,173.3,212.6"/>
<path class="st1" d="M45.2,40.2C20.3,40.2,0,60.4,0,85.3v106.8c0,24.9,20.2,45.1,45.2,45.1h109.7c25,0,45.2-20.2,45.2-45.1V85.3
	c0-24.9-20.2-45.1-45.2-45.1L45.2,40.2L45.2,40.2z"/>
<path class="st2" d="M675.4,202.1v-96.4h-30.2v96.4c0,6-4.9,10.9-10.9,10.9c-6,0-10.9-4.9-10.9-10.9v-58.2
	c0-22.6-18.4-40.9-41.1-40.9s-41.1,18.4-41.1,40.9v58.2c0,6-4.9,10.9-10.9,10.9c-6,0-10.9-4.9-10.9-10.9v-96.4h-30.2v96.4
	c0,22.6,18.4,40.9,41,40.9s41.1-18.4,41.1-40.9v-58.2c0-6,4.9-10.9,10.9-10.9c6,0,10.9,4.9,10.9,10.9v58.2c0,22.6,18.4,40.9,41,40.9
	C656.9,243,675.3,224.6,675.4,202.1"/>
<path class="st2" d="M466.9,202v-96.3h-30.2V202c0,6-4.9,10.8-10.9,10.8S415,207.9,415,202v-58.2c0-22.6-18.4-40.9-41-40.9
	c-22.6,0-41.1,18.4-41.1,40.9v96.4h30.2v-96.4c0-6,4.9-10.8,10.9-10.8s10.9,4.9,10.9,10.8V202c0,22.6,18.4,40.9,41.1,40.9
	C448.5,242.9,466.9,224.5,466.9,202"/>
<path class="st2" d="M738.8,102.8h81.3v30.1h-81.3c-6,0-10.9,4.9-10.9,10.9s4.9,10.9,10.9,10.9h58.3c22.6,0,41,18.4,41,40.9
	s-18.4,40.9-41,40.9h-96.7v-30.1h96.7c6,0,10.9-4.9,10.9-10.9s-4.9-10.8-10.9-10.8h-58.3c-22.6,0-41-18.4-41-40.9
	C697.8,121.2,716.2,102.8,738.8,102.8"/>
<path class="st2" d="M822.8,296.6c0,1.2,0.9,2.1,2.1,2.1h11.7c1,0,1.9-0.8,1.9-1.9s-0.8-1.9-1.9-1.9h-9.5v-26.9
	c0-1.2-0.9-2.1-2.1-2.1c-1.3,0-2.1,0.9-2.1,2.1V296.6z M810,289.6c0,4.6-2.9,6-5.2,6c-2.4,0-5.2-1.4-5.2-6v-14.2c0-4.6,2.9-6,5.2-6
	c2.3,0,5.2,1.4,5.2,6V289.6z M804.8,299.4c3.1,0,9.5-1.4,9.5-9.8v-14.2c0-8.4-6.3-9.8-9.5-9.8c-3.1,0-9.5,1.4-9.5,9.8v14.2
	C795.4,298,801.7,299.4,804.8,299.4 M783.1,289.6c0,4.6-2.9,6-5.2,6c-2.4,0-5.2-1.4-5.2-6v-14.2c0-4.6,2.9-6,5.2-6
	c2.3,0,5.2,1.4,5.2,6V289.6z M777.8,299.4c3.1,0,9.5-1.4,9.5-9.8v-14.2c0-8.4-6.3-9.8-9.5-9.8s-9.5,1.4-9.5,9.8v14.2
	C768.4,298,774.7,299.4,777.8,299.4 M745.8,283.9h9.8v13c0,1.2,0.9,2.1,2.1,2.1c1.2,0,2.1-0.9,2.1-2.1v-28.8c0-1.2-0.9-2.1-2.1-2.1
	c-1.3,0-2.1,0.9-2.1,2.1v12h-9.8v-12c0-1.2-0.9-2.1-2.1-2.1c-1.3,0-2.1,0.9-2.1,2.1v28.8c0,1.2,0.9,2.1,2.1,2.1
	c1.2,0,2.1-0.9,2.1-2.1V283.9z M729.5,290.5c0,3.1-2,5.1-4.7,5.1c-2.4,0-4.7-1.6-4.7-6v-14.2c0-4.4,2.3-6,4.7-6c2.7,0,4.7,2,4.7,5.1
	c0,1.2,0.9,2.1,2.1,2.1c1.2,0,2.1-0.9,2.1-2.1c0-4.4-2.7-8.9-9-8.9c-3.1,0-8.9,1.4-8.9,9.8v14.2c0,8.4,5.8,9.8,8.9,9.8
	c6.2,0,9-4.5,9-8.9c0-1.2-0.9-2.1-2.1-2.1C730.4,288.4,729.5,289.3,729.5,290.5z M708,274.5c0-4.4-2.9-8.9-9.2-8.9
	c-3.1,0-9.1,1.4-9.1,8.9c0,5.4,4.1,7.3,7.9,9.1v0c3.2,1.5,6.4,2.9,6.4,6.6c0,3.9-2.9,5.5-5.2,5.5c-3.2,0-5.2-2.5-5.2-5.1
	c0-1.2-0.9-2.1-2.1-2.1c-1.3,0-2.1,0.9-2.1,2.1c0,4.1,3,8.9,9.5,8.9c3.1,0,9.5-1.4,9.5-9.3c0-6.2-4.5-8.2-8.5-10.1
	c-3-1.4-5.8-2.6-5.8-5.4c0-3.5,2.5-5.1,4.8-5.1c2.8,0,4.9,2,4.9,5.1c0,1.2,0.9,2.1,2.1,2.1C707.1,276.6,708,275.6,708,274.5z
	 M652.5,280.1v-10h3.6c3.2,0,5.8,1.1,5.8,5c0,3.9-2.6,5.1-5.8,5.1H652.5z M652.5,294.9v-11h4.3c4,0,5.8,2.1,5.8,5.5
	s-1.8,5.5-5.8,5.5H652.5z M648.3,296.6c0,1.2,0.9,2.1,2.1,2.1h6.3c5,0,10.1-1.6,10.1-9.3c0-4-1.6-6.6-3.9-7.6
	c1.9-1.2,3.2-3.6,3.2-6.8c0-7.3-5.5-8.8-10-8.8h-5.7c-1.2,0-2.1,0.9-2.1,2.1L648.3,296.6L648.3,296.6z M624.2,296.6
	c0,1.2,0.9,2.1,2.1,2.1h12.1c1,0,1.9-0.8,1.9-1.9s-0.8-1.9-1.9-1.9h-9.9v-11h8.2c1,0,1.9-0.8,1.9-1.9c0-1.1-0.8-1.9-1.9-1.9h-8.2
	v-10h9.9c1,0,1.9-0.8,1.9-1.9s-0.8-1.9-1.9-1.9h-12.1c-1.2,0-2.1,0.9-2.1,2.1V296.6z M585.8,289.6c0,8.6,5.4,9.8,8.5,9.8
	c2,0,5-0.8,6.3-3.3c1.3,2.5,4.3,3.3,6.3,3.3c3.1,0,8.5-1.2,8.5-9.8v-21.5c0-1.2-0.9-2.1-2.1-2.1c-1.3,0-2.1,0.9-2.1,2.1v21.5
	c0,4.6-2.2,6-4.2,6c-1.8,0-4.3-1.4-4.3-6v-21.3c0-1.2-0.9-2.1-2.1-2.1c-1.2,0-2.1,0.9-2.1,2.1v21.3c0,4.6-2.4,6-4.3,6
	c-2,0-4.3-1.4-4.3-6v-21.5c0-1.2-0.9-2.1-2.1-2.1c-1.3,0-2.1,0.9-2.1,2.1L585.8,289.6L585.8,289.6z M546.6,296.6
	c0,1.2,0.9,2.1,2.1,2.1h12.1c1,0,1.9-0.8,1.9-1.9s-0.8-1.9-1.9-1.9h-9.9v-11h8.2c1,0,1.9-0.8,1.9-1.9c0-1.1-0.8-1.9-1.9-1.9h-8.2
	v-10h9.9c1,0,1.9-0.8,1.9-1.9s-0.8-1.9-1.9-1.9h-12.1c-1.2,0-2.1,0.9-2.1,2.1V296.6z M532.9,296.9c0,1.2,0.9,2.1,2.1,2.1
	c1.2,0,2-0.9,2-2.1v-28.8c0-1.2-0.9-2.1-2.1-2.1c-1.2,0-2.1,0.9-2.1,2.1L532.9,296.9L532.9,296.9z M510,270h5.1c2.3,0,4.5,1.4,4.5,6
	v12.9c0,4.6-2.1,6-4.5,6H510V270z M505.8,296.6c0,1.2,0.9,2.1,2.1,2.1h7.2c3.1,0,8.7-1.2,8.7-9.8V276c0-8.6-5.6-9.8-8.7-9.8h-7.2
	c-1.2,0-2.1,0.9-2.1,2.1V296.6z M478.4,296.9c0,1.2,0.9,2.1,2.1,2.1c1.3,0,2.1-0.9,2.1-2.1v-21.5c0-4.6,2.7-6,5-6c2.4,0,5,1.4,5,6
	v21.5c0,1.2,0.9,2.1,2.1,2.1c1.3,0,2.1-0.9,2.1-2.1v-21.5c0-8.6-6.1-9.8-9.3-9.8c-3.1,0-9.3,1.2-9.3,9.8V296.9z M456,280.1v-4.7
	c0-4.6,2.5-6,4.8-6c2.3,0,4.9,1.4,4.9,6v4.7H456z M469.9,275.3c0-8.6-6-9.8-9.1-9.8c-3.1,0-9.1,1.2-9.1,9.8v21.5
	c0,1.2,0.9,2.1,2.1,2.1c1.2,0,2.1-0.9,2.1-2.1v-13h9.7v13c0,1.2,0.9,2.1,2.1,2.1c1.2,0,2.1-0.9,2.1-2.1V275.3z M413.5,296.9
	c0,1.2,0.9,2.1,2.1,2.1c1.2,0,2.1-0.9,2.1-2.1v-21.5c0-4.6,2.2-6,4.3-6c1.8,0,4.3,1.4,4.3,6v21.3c0,1.2,0.9,2.1,2.1,2.1
	c1.2,0,2.1-0.9,2.1-2.1v-21.3c0-4.6,2.4-6,4.3-6c2,0,4.3,1.4,4.3,6v21.5c0,1.2,0.9,2.1,2.1,2.1c1.2,0,2.1-0.9,2.1-2.1v-21.5
	c0-8.6-5.4-9.8-8.5-9.8c-2,0-5,0.8-6.3,3.3c-1.3-2.5-4.3-3.3-6.3-3.3c-3.1,0-8.5,1.2-8.5,9.8L413.5,296.9L413.5,296.9z M391.4,281
	v-11h3.8c4,0,5.8,2.2,5.8,5.5s-1.8,5.5-5.8,5.5H391.4z M387.2,296.9c0,1.2,0.9,2.1,2.1,2.1c1.2,0,2.1-0.9,2.1-2.1v-12h3.1
	c3.2,0,6,1.3,6,5.1l0.1,6.9c0,1.2,0.9,2.1,2.1,2.1c1.2,0,2.1-0.9,2.1-2.1l-0.1-6.9c0-3-1.5-5.5-3.3-6.8c2.2-1.2,3.8-3.6,3.8-7.6
	c0-7.7-5-9.3-10-9.3h-5.9c-1.3,0-2.1,0.9-2.1,2.1L387.2,296.9L387.2,296.9z M374.4,289.6c0,4.6-2.9,6-5.2,6c-2.4,0-5.2-1.4-5.2-6
	v-14.2c0-4.6,2.9-6,5.2-6c2.3,0,5.2,1.4,5.2,6V289.6z M369.2,299.4c3.1,0,9.5-1.4,9.5-9.8v-14.2c0-8.4-6.3-9.8-9.5-9.8
	c-3.1,0-9.5,1.4-9.5,9.8v14.2C359.8,298,366.1,299.4,369.2,299.4 M332.9,296.9c0,1.2,0.9,2.1,2.1,2.1c1.3,0,2.1-0.9,2.1-2.1v-21.5
	c0-4.6,2.7-6,5-6c2.4,0,5,1.4,5,6v21.5c0,1.2,0.9,2.1,2.1,2.1c1.3,0,2.1-0.9,2.1-2.1v-21.5c0-8.6-6.1-9.8-9.3-9.8
	c-3.1,0-9.3,1.2-9.3,9.8V296.9z"/>
<path class="st3" d="M194.8,80.7H85.1c-25,0-45.2,20.2-45.2,45.1v106.8c0,24.9,20.2,45.1,45.2,45.1h53.4l38.6,37.3
	c1.2,1.1,2.8,1.7,4.3,1.7c0.8,0,1.7-0.2,2.4-0.5c2.3-1,3.8-3.2,3.8-5.7v-32.8h7.1c25,0,45.2-20.2,45.2-45.1V125.8
	C240,100.9,219.8,80.7,194.8,80.7z"/>
<path class="st4" d="M176.7,200c-2.8,0-5.1-2.3-5.1-5.1v-31.4c0-10.6-8.7-19.3-19.3-19.3c-1.8,0-19.3,0-19.3,0v50.7
	c0,2.8-2.3,5.1-5.1,5.1c-2.8,0-5.1-2.3-5.1-5.1v-31.4c0-10.6-8.7-19.3-19.3-19.3c-10.7,0-19.4,8.7-19.4,19.3V213h14.2v-49.5
	c0-2.8,2.3-5.1,5.1-5.1c2.8,0,5.1,2.3,5.1,5.1v31.4c0,10.6,8.7,19.3,19.4,19.3c10.7,0,19.3-8.7,19.4-19.3v-32.2
	c0.4-2.5,2.5-4.3,5.1-4.3c2.8,0,5.1,2.3,5.1,5.1v31.4c0,10.6,8.7,19.3,19.4,19.3c10.7,0,19.3-8.7,19.4-19.3v-50.6h-14.2l0,50.6
	C181.8,197.7,179.5,200,176.7,200"/>
</svg>
